<?xml version="1.0" encoding="UTF-8"?>
<!DOCTYPE svg PUBLIC "-//W3C//DTD SVG 1.1//EN" "http://www.w3.org/Graphics/SVG/1.1/DTD/svg11.dtd">
<!-- Creator: CorelDRAW -->
<svg xmlns="http://www.w3.org/2000/svg" xml:space="preserve" width="361.481mm" height="77.9024mm" version="1.1" style="shape-rendering:geometricPrecision; text-rendering:geometricPrecision; image-rendering:optimizeQuality; fill-rule:evenodd; clip-rule:evenodd"
viewBox="0 0 72296.24 15580.47"
 xmlns:xlink="http://www.w3.org/1999/xlink"
 xmlns:xodm="http://www.corel.com/coreldraw/odm/2003">
 <defs>
  <style type="text/css">
   <![CDATA[
    .fil0 {fill:#2B2B2A;fill-rule:nonzero}
   ]]>
  </style>
 </defs>
 <g id="Слой_x0020_1">
  <metadata id="CorelCorpID_0Corel-Layer"/>
  <path class="fil0" d="M5020.34 6711.38c692.84,0 1244.58,-202.7 1655.76,-607.76 410.82,-405.22 616.62,-948.26 616.62,-1629.58 0,-669.12 -208.72,-1209.3 -625.5,-1620.48 -416.72,-410.84 -965.96,-616.64 -1646.88,-616.64l-2536.86 0 0 4474.46 2536.86 0zm264.14 -6535.42c1374.1,0 2477.76,387.76 3311.68,1162.76 833.74,775.04 1250.94,1790.88 1250.94,3047.36 0,1315.42 -425.84,2375.34 -1277.34,3179.42 -851.44,804.48 -1976.06,1206.84 -3373.24,1206.84l-2713.04 0 0 4439 -2483.48 0 0 -13035.37 5284.48 0zm30449.36 6147.82c821.78,258.36 1464.74,660.48 1928.88,1206.62 463.74,545.96 695.76,1188.92 695.76,1928.94 0,1174.26 -463.98,2122.58 -1391.68,2844.84 -927.66,722.1 -2155.12,1083.24 -3681.46,1083.24 -1843.86,0 -3452.6,-563.66 -4826.52,-1690.98l1233 -1708.9c974.66,892.68 2125.28,1338.9 3452.6,1338.9 798.54,0 1441.26,-178.82 1928.72,-537.26 487.2,-358.1 731.14,-830.66 731.14,-1418.02 0,-575.16 -231.96,-1042 -695.94,-1400.26 -463.9,-358.1 -1071.66,-537.32 -1823,-537.32l-1867.32 0 0 -1832.06 1321.18 0c716.08,0 1288.6,-161.3 1717.54,-484.36 428.52,-323.04 642.96,-754.44 642.96,-1294.78 0,-528.46 -226.4,-953.88 -678.18,-1277.12 -452.22,-322.82 -1042.46,-484.52 -1770.32,-484.52 -998.32,0 -1890.98,346.72 -2677.54,1039.36l-1092.1 -1585.32c1256.48,-1009.88 2689.1,-1514.78 4298.08,-1514.78 1350.22,0 2436.76,325.68 3258.78,977.52 821.76,651.84 1233.18,1512.16 1233.18,2580.72 0,1221.44 -646.06,2143.2 -1937.76,2765.54zm14934.37 -6147.72l2659.84 0 -5636.96 13035.15 -2660.02 0 1462.04 -3364.42 -4667.86 -9670.73 2642.34 0 3294.16 7046.12 2906.46 -7046.12zm21628.03 13035.21l-2483.72 0 -510.92 -8895.68 -3981.04 8895.68 -1373.86 0 -3981.04 -8860.46 -510.92 8860.46 -2483.72 0 880.7 -13105.57 2730.32 0 4051.46 9036.42 4051.54 -9036.42 2730.26 0 880.94 13105.57zm-51924.93 -13034.61l-2619.66 0 -3514.38 8595.74 2578.44 0 2254.62 -5513.56 2245.8 5513.56 2571.02 0 -3515.84 -8595.74zm-6642.12 13034.61l10685.57 0 968.72 2369.2 -12616.15 0 961.86 -2369.2z"/>
 </g>
</svg>
